<svg xmlns="http://www.w3.org/2000/svg">
    <symbol fill="none" id="icon-aflt-card-icon-1" viewBox="0 0 61 61">
        <rect x=".5" y=".568" width="60" height="60" rx="30" fill="#fff"/>
        <path d="M52.5 30.527c0 12.132-9.848 21.968-22 21.968s-22-9.836-22-21.968c0-12.131 9.848-21.968 22-21.968s22 9.837 22 21.968Z" fill="#fff"
              stroke="#806E54" stroke-width="2"/>
        <path d="M46.75 30.527c0 8.96-7.274 16.226-16.25 16.226-8.976 0-16.25-7.266-16.25-16.226 0-8.96 7.274-16.226 16.25-16.226 8.976 0 16.25 7.266 16.25 16.226Z"
              fill="#fff" stroke="#806E54" stroke-width="2"/>
        <path d="M31.254 32.657c0 2.611 1.234 4.535 3.291 5.36.549.274 1.372.137 1.92.549H25.77c.411-.412 1.234-.275 1.783-.55 1.92-.687 3.29-2.198 3.29-5.084-.96.687-1.645 1.786-3.153 1.924-2.743.137-3.566-3.023-2.469-4.947.686-1.1 2.194-2.199 3.154-3.16 1.235-1.238 2.194-2.612 2.606-4.26.274.549.548 1.51.96 2.198 1.371 2.336 4.937 3.985 5.348 6.321.96 4.26-4.525 4.672-6.034 1.65Z"
              fill="#191717"/>
        <path d="M26.685 19.887c17.025.596 17.253 11.818 17.254 12.306a.762.762 0 0 0 .728.775L26.685 19.887Zm0 0v-.015h-.5m.5.015-.5-.015m0 0-.012.5h.012m0-.5v.5m0 0v7.186c0 .3-.34.584-.605.71a.73.73 0 0 1-.802-.113L9.764 15.042a.78.78 0 0 1-.264-.588.78.78 0 0 1 .264-.588l16.42 6.506Zm18.755 11.84a.261.261 0 0 1-.244.256h-.013a.262.262 0 0 1-.244-.273v-.002c0-.299-.067-3.407-2.408-6.5-2.36-3.116-6.956-6.122-15.835-6.32l-.511-.012v8.184a.312.312 0 0 1-.066.09.914.914 0 0 1-.254.181.236.236 0 0 1-.257-.038L10.092 14.666a.28.28 0 0 1-.093-.211c0-.085.036-.16.093-.21v-.001L25.107 1.129a.234.234 0 0 1 .256-.038h.002c.112.054.213.115.278.175a.3.3 0 0 1 .042.045v8.225l.49.01c2.424.048 8.909.666 13.628 5.518 3.796 3.902 5.554 9.642 5.137 17.149ZM25.69 1.32v-.002.002Zm-8.645 31.908a.062.062 0 0 1 .055-.06h.006c.03.002.059.027.058.064v.003c0 .234.053 2.538 1.826 4.83 1.79 2.313 5.257 4.517 11.906 4.663l.51.01V36.67a.378.378 0 0 1 .082-.07.54.54 0 0 1 .08-.047.056.056 0 0 1 .061.009h.002l11.198 9.572a.064.064 0 0 1 .022.05.066.066 0 0 1-.022.048L31.63 55.804a.057.057 0 0 1-.06.01h-.003a1.02 1.02 0 0 1-.162-.096v-6.077l-.49-.01c-1.8-.035-6.595-.486-10.08-3.991-2.795-2.813-4.1-6.96-3.791-12.412Zm-.5-.028a.562.562 0 0 1 .577-.531c.303.01.544.26.542.565l-1.118-.034Z"
              fill="#E2B46B" stroke="#fff"/>
    </symbol>
    <symbol fill="none" id="icon-aflt-card-icon-2" viewBox="0 0 61 61">
        <rect x=".5" y=".568" width="60" height="60" rx="4" fill="#fff"/>
        <path fill="#E2B46B" stroke="#E2B46B" d="M6 39.668h4.1v4.1H6zm0-7.65h4.1v4.1H6z"/>
        <path fill="#E2B46B" d="M5.5 23.868h5.1v5.1H5.5zm0-7.65h5.1v5.1H5.5zm0-7.65h5.1v5.1H5.5zm7.65 15.3h5.1v5.1h-5.1zm0-7.65h5.1v5.1h-5.1z"/>
        <path fill="#191717" d="M13.15 8.568h5.1v5.1h-5.1z"/>
        <path fill="#E2B46B" d="M20.799 23.868h5.1v5.1h-5.1z"/>
        <path fill="#191717" d="M20.799 16.218h5.1v5.1h-5.1zm0-7.65h5.1v5.1h-5.1z"/>
        <path fill="#E2B46B" stroke="#E2B46B" d="M28.948 32.018h4.1v4.1h-4.1z"/>
        <path fill="#191717" d="M28.448 23.868h5.1v5.1h-5.1z"/>
        <path fill="#191717" stroke="#191717" d="M28.948 16.718h4.1v4.1h-4.1z"/>
        <path fill="#191717" d="M28.448 8.568h5.1v5.1h-5.1z"/>
        <path fill="#E2B46B" stroke="#E2B46B" d="M36.599 39.668h4.1v4.1h-4.1z"/>
        <path fill="#191717" stroke="#191717" d="M36.599 32.018h4.1v4.1h-4.1zm0-22.95h4.1v4.1h-4.1z"/>
        <path fill="#E2B46B" stroke="#E2B46B" d="M44.25 47.318h4.1v4.1h-4.1z"/>
        <path fill="#191717" stroke="#191717" d="M44.25 39.668h4.1v4.1h-4.1zm0-30.6h4.1v4.1h-4.1zm7.65 38.25H56v4.1h-4.1z"/>
        <path fill-rule="evenodd" clip-rule="evenodd" d="M54.5 10.541h-3V8.568h5v36h-2V10.541Z" fill="#191717"/>
        <path fill-rule="evenodd" clip-rule="evenodd" d="M7.5 50.068v-2.5h-2v4.5h36v-2h-34Z" fill="#E2B46B"/>
    </symbol>
    <symbol fill="none" id="icon-aflt-card-icon-3" viewBox="0 0 73 69">
        <path d="m60.707 26.235-3.657-3.702v-.064l.021-3.177v-.003l.01-1.624V16.43l.005-.864a1.99 1.99 0 0 0 .002-.4l.001-.245v-1.258a2 2 0 0 0-2.55-1.923l-6.88 1.286-8.753-8.86-.004-.004a5.395 5.395 0 0 0-7.635-.02L4.438 30.735l-.004.004a5.405 5.405 0 0 0-1.176 5.903 5.404 5.404 0 0 0 1.176 1.757h.001l4.13 4.112a12.095 12.095 0 0 0 2.621 4.002l.001.001c.845.85 1.803 1.556 2.854 2.112-.03.17-.047.34-.054.512a2.39 2.39 0 0 0-.014.308v11.388c0 .896.271 1.85.936 2.574.697.76 1.763 1.167 2.894.892l9.659-1.881.012-.002.678-.128.026-.005.203-.041 2.764 2.751a5.394 5.394 0 0 0 2.52 1.42l.007.002a5.43 5.43 0 0 0 2.906-.097l.006-.002c.94-.298 1.613-.85 2.024-1.187l.058-.048.181-.147.005-.004.646-.512h.001l3.936-3.124.008-.006 1.793-1.437.009-.007 1.482-1.174 3.907-.766c.041-.008.083-.018.124-.029 1.038-.273 1.754-1.018 2.173-1.698.438-.71.709-1.584.709-2.49v-.507l4.275-3.396.007-.005 1.979-1.558.006-.005 5.173-4.104.9.877a2 2 0 0 0 3.393-1.331l.779-15.389v-.017a2.998 2.998 0 0 0-.241-1.311l-1.807.777 1.807-.777a2.998 2.998 0 0 0-3.29-1.764l-.007.001-5.907 1.056Z"
              fill="#191717" stroke="#fff" stroke-width="4" stroke-linejoin="round"/>
        <path d="m66.776 27.261-6.89 1.232L37.554 5.886a3.364 3.364 0 0 0-4.76-.013L6.208 32.224a3.374 3.374 0 0 0-.734 3.686c.17.41.42.783.734 1.097l26.465 26.35c.433.433.976.739 1.57.886a3.4 3.4 0 0 0 1.82-.061c.647-.206 1.093-.619 1.606-1.03l.65-.515 1.004-.8 1.316-1.043 1.58-1.252 1.784-1.43 1.964-1.555 2.077-1.649 2.142-1.704 2.17-1.723 2.142-1.702 2.073-1.645 1.967-1.548 1.785-1.414 1.565-1.243 1.301-1.033.989-.785.628-.499.221-.179 2.142 2.089.771-15.247a.99.99 0 0 0-.726-.995.986.986 0 0 0-.44-.019Z"
              fill="#E51E25"/>
        <path d="M65.489 28.981 55.202 30.71l1.964 1.629a131.674 131.674 0 0 0-4.463 5.174c-.134.146-.23.253-.273.303a41819.803 41819.803 0 0 1-15.19 17.257l-.79.894a2.333 2.333 0 0 1-2.564.639 2.333 2.333 0 0 1-.788-.495l-20.96-19.979a2.326 2.326 0 0 1-.116-3.26l22.174-24.39a1.464 1.464 0 0 1 1.028-.4 1.56 1.56 0 0 1 .848.261c.039.032.06.038.12.088l.208.198s17.876 17.008 20.1 19.148l.293-.286-12.94-13.241-6.466-6.62a3.097 3.097 0 0 0-2.002-1.046 3.03 3.03 0 0 0-2.17.617c-1.13 1.05-2.196 2.166-3.296 3.248L16.806 23.523l-6.55 6.538-1.638 1.634c-.535.554-1.174 1.039-1.454 1.777-.3.72-.314 1.53-.038 2.26.137.362.342.694.605.978.263.282.536.547.814.82l13.126 13.051 6.563 6.528 3.283 3.264c.55.537 1.088 1.095 1.645 1.626a3.05 3.05 0 0 0 4.193-.13l1.723-1.546 3.443-3.09 6.882-6.178 10.463-9.395c1.146-.978 2.32-1.966 3.532-2.951l2.1 1.49 1.095-10.204a.94.94 0 0 0-1.104-1.014Z"
              fill="#fff"/>
        <path d="M20.788 47.566c-3.056 0-5.656-.993-7.521-2.872-1.93-1.945-2.94-4.709-2.92-7.993.046-7.606 5.518-13.945 13.307-15.395a15.66 15.66 0 0 1 2.881-.286c2.512 0 4.623.704 6.272 2.093l.393.331-5.262 6.17-.383-.311a4.31 4.31 0 0 0-2.824-.946 7.271 7.271 0 0 0-1.317.13c-3.158.592-5.378 3.458-5.4 6.973-.01 1.716.445 3.086 1.314 3.962.714.728 1.713 1.11 2.872 1.11a5.758 5.758 0 0 0 1.051-.1c2.45-.46 3.986-1.546 4.766-3.397l-5.355 1.001.034-5.82 12.833-2.404.072.537c.094.734.136 1.473.127 2.213a14.995 14.995 0 0 1-3.384 9.526 14.951 14.951 0 0 1-8.656 5.202 15.84 15.84 0 0 1-2.9.276Z"
              fill="#E51E25"/>
        <path d="M26.536 21.533c2.467 0 4.45.715 5.945 1.967l-4.606 5.41a4.825 4.825 0 0 0-3.144-1.059c-.473.003-.945.05-1.41.14-3.391.633-5.792 3.699-5.815 7.467-.023 3.835 2.115 5.586 4.696 5.586a6.31 6.31 0 0 0 1.144-.11c3.008-.563 4.741-2.073 5.439-4.56l-5.607 1.05.03-4.787 11.894-2.226c.092.712.133 1.429.125 2.146-.05 8.045-6.005 13.178-11.627 14.23-.927.177-1.868.267-2.812.269-5.99 0-9.972-3.985-9.932-10.351.044-7.33 5.372-13.491 12.892-14.898a15.07 15.07 0 0 1 2.784-.274m0-1.02c-.997.007-1.992.104-2.971.292a17.187 17.187 0 0 0-9.83 5.56A15.945 15.945 0 0 0 9.84 36.698c-.021 3.424 1.039 6.313 3.066 8.357 1.964 1.975 4.688 3.021 7.882 3.021a16.362 16.362 0 0 0 2.996-.29c3.515-.7 6.679-2.6 8.95-5.377a15.512 15.512 0 0 0 3.505-9.848c.01-.764-.035-1.527-.133-2.285l-.14-1.061-1.054.196-11.894 2.228-.825.154v.84l-.028 4.786v1.233l1.21-.227 3.69-.69c-.8 1.146-2.073 1.858-3.897 2.2-.316.059-.636.09-.957.09-.714 0-1.726-.166-2.513-.958-.787-.792-1.175-2.024-1.166-3.6.02-3.267 2.07-5.929 4.986-6.474a6.7 6.7 0 0 1 1.222-.122 3.825 3.825 0 0 1 2.5.832l.768.622.643-.753 4.607-5.403.666-.78-.786-.66c-1.744-1.469-3.964-2.214-6.604-2.214h-.002Z"
              fill="#E51E25"/>
        <path d="M40.03 42.48v-.748l.098-16.008-6.795 1.274.01-2.074.032-4.99 14.55-2.722 3.539-.663 1.343-.256 1.116-.21h.557l.005.514-.007 1.266-.007 1.598-.025 3.583-1.273.238-5.531 1.036-.1 16.99-.012 1.084-7.515 1.407.014-1.32Z"
              fill="#E51E25"/>
        <path d="M53.976 16.593v2.866l-.036 3.17-.862.162-5.942 1.113-.11 17.402v.662l-6.495 1.22V41.74l.101-16.627-6.782 1.275.009-1.46.028-4.567 14.138-2.646 3.538-.663 1.347-.258 1.072-.198m1.022-1.017h-1.122l-.093.016-1.071.198-1.351.26-3.534.663-14.137 2.644-.824.154v.84l-.03 4.568v2.694l1.208-.227 5.586-1.05-.107 15.388v1.44l-.012 1.241 1.215-.229 6.495-1.215.822-.154.008-.835v-.663l.099-16.575 5.117-.953.862-.163.823-.156v-.838l.021-3.16.01-1.61v-2.288l.015.008Z"
              fill="#E51E25"/>
        <path d="M20.788 46.112c-3.056 0-5.656-.994-7.521-2.871-1.93-1.947-2.94-4.711-2.92-7.995.046-7.606 5.518-13.937 13.307-15.395a15.674 15.674 0 0 1 2.878-.283c2.511 0 4.623.705 6.272 2.095l.393.33-5.259 6.178-.383-.31a4.31 4.31 0 0 0-2.826-.945 7.241 7.241 0 0 0-1.315.129c-3.162.59-5.378 3.45-5.4 6.963-.01 1.715.445 3.084 1.314 3.962.714.726 1.715 1.11 2.874 1.11a5.62 5.62 0 0 0 1.05-.101c2.45-.458 3.985-1.547 4.765-3.397l-5.355 1.003.034-5.823 12.839-2.412.071.536c.094.735.136 1.475.127 2.216a14.999 14.999 0 0 1-3.385 9.524 14.955 14.955 0 0 1-8.654 5.204c-.958.183-1.93.278-2.906.282Z"
              fill="#fff"/>
        <path d="M26.536 20.078c2.467 0 4.45.715 5.945 1.975l-4.606 5.403a4.825 4.825 0 0 0-3.144-1.057 7.787 7.787 0 0 0-1.41.138c-3.391.635-5.792 3.699-5.815 7.47-.023 3.833 2.115 5.583 4.696 5.583.384 0 .767-.037 1.144-.11 3.008-.562 4.741-2.073 5.439-4.558l-5.607 1.05.03-4.787 11.894-2.227c.091.711.133 1.428.125 2.145-.05 8.045-6.005 13.178-11.627 14.231-.927.176-1.868.266-2.812.268-5.99 0-9.972-3.986-9.932-10.353.044-7.33 5.372-13.49 12.892-14.898a15.22 15.22 0 0 1 2.784-.273m0-1.018c-.997.005-1.992.102-2.971.29a17.19 17.19 0 0 0-9.83 5.562A15.941 15.941 0 0 0 9.84 35.244c-.021 3.422 1.039 6.31 3.066 8.354 1.964 1.978 4.688 3.022 7.882 3.022a16.36 16.36 0 0 0 2.996-.288 15.466 15.466 0 0 0 8.95-5.379 15.514 15.514 0 0 0 3.505-9.848c.01-.763-.035-1.526-.133-2.283l-.14-1.064-1.054.197-11.894 2.227-.825.154v.84l-.028 4.786v1.234l1.21-.227 3.69-.69c-.8 1.146-2.073 1.86-3.897 2.2-.316.06-.636.09-.957.092-.714 0-1.726-.166-2.513-.96-.787-.794-1.175-2.024-1.166-3.6.02-3.266 2.07-5.928 4.986-6.475a6.683 6.683 0 0 1 1.222-.121 3.825 3.825 0 0 1 2.5.833l.768.62.643-.752 4.607-5.403.666-.78-.786-.66c-1.747-1.469-3.96-2.22-6.602-2.22l-.004.007Z"
              fill="#E51E25"/>
        <path d="m40.13 24.268-6.802 1.273.043-7.062 21.116-3.954-.043 7.063-6.803 1.273-.108 18.075-7.513 1.407.11-18.075Z" fill="#fff"/>
        <path d="m53.974 15.14-.037 6.025-6.8 1.273-.111 18.07-6.495 1.215.11-18.077-6.802 1.275.036-6.027 20.098-3.754m1.023-1.229-1.21.228-20.097 3.754-.824.154v.84l-.038 6.025v1.233l1.212-.226 5.59-1.046-.101 16.843v1.233l1.21-.227 6.493-1.215.825-.156v-.84l.103-17.235 5.978-1.12.825-.155v-.84l.035-6.025v-1.233l-.002.008Z"
              fill="#E51E25"/>
        <path d="M51.58 42.24v11.319c0 1.022-.625 2.034-1.378 2.233l-3.193.625-1.01.199-1.65.309-1.04.199-13.551 2.642-.684.138-1.132.228-.683.13-9.639 1.876c-.753.208-1.378-.477-1.378-1.5v-11.31a.381.381 0 0 1 .011-.109c0-.233.04-.465.118-.684 0 0 .01-.02.01-.03 0-.011.011-.02.011-.03.094-.303.245-.587.445-.834.12-.154.269-.285.437-.386.106-.072.223-.125.346-.16l3.61-.715.683-.128v-.01l3.793-.729 1.19-.228 15.097-2.95.814-.158 7.395-1.44a.935.935 0 0 1 .535.01 1.203 1.203 0 0 1 .753.903c.057.192.087.39.09.59Z"
              fill="#E51E25"/>
        <path d="m19.874 58.445 1.994-9.455 4.773-.936c1.519-.299 2.66.67 2.66 2.145 0 1.318-.87 3.703-4.002 4.32l-2.062.404-.625 2.974-2.738.548Zm5.555-6.338c.501-.099 1.03-.5 1.03-1.032 0-.408-.284-.536-.746-.45l-1.64.321-.313 1.49 1.642-.324.027-.005Zm8.414 3.597-.623-2.729-1.1.215-.623 2.968-2.74.536 1.994-9.454 4.395-.864c1.64-.323 3.034.476 3.034 2.146 0 1.609-1.044 3.04-2.224 3.697l.892 2.88-3.005.605Zm1.506-6.313c0-.381-.339-.587-.758-.504l-1.628.32-.313 1.49 1.668-.328c.596-.125 1.031-.47 1.031-.985v.007Zm2.899 1.446c0-2.893 2.292-5.667 5.438-6.286 2.678-.526 4.705.76 4.705 3.206 0 2.892-2.279 5.69-5.426 6.309-2.684.53-4.717-.769-4.717-3.229Zm7.309-2.306c0-1.114-.814-1.768-2.035-1.529-1.437.283-2.44 1.702-2.44 3.088 0 1.114.812 1.77 2.033 1.528 1.439-.282 2.442-1.702 2.442-3.087Z"
              fill="#fff"/>
    </symbol>
    <symbol fill="none" id="icon-aflt-card-icon-4" viewBox="0 0 61 61">
        <circle cx="30.5" cy="30.568" r="30" fill="#191717"/>
        <circle cx="30.389" cy="30.458" r="28.125" fill="#fff"/>
        <rect x="26.695" y="1.451" width="7.5" height="58.125" rx="1.023" fill="#191717"/>
        <rect x="59.507" y="26.763" width="7.5" height="58.125" rx="1.023" transform="rotate(90 59.507 26.763)" fill="#191717"/>
        <rect x="48.344" y="7.311" width="7.5" height="58.125" rx="1.023" transform="rotate(45 48.344 7.311)" fill="#191717"/>
        <rect x="53.647" y="48.412" width="7.5" height="58.125" rx="1.023" transform="rotate(135 53.647 48.412)" fill="#191717"/>
        <circle cx="30.794" cy="30.863" r="25" fill="#191717"/>
        <circle cx="30.501" cy="30.568" r="22.941" fill="#E2B46B"/>
        <path fill-rule="evenodd" clip-rule="evenodd"
              d="M24.987 31.068c6.345 0 11.488-3.306 11.488-7.385 0-4.078-5.143-7.384-11.488-7.384-6.344 0-11.487 3.306-11.487 7.384 0 2.604 2.096 4.893 5.263 6.208.463.192.745.677.647 1.168l-.46 2.296c-.181.91.864 1.555 1.595.986l4.027-3.132a.676.676 0 0 1 .415-.141Z"
              fill="#fff"/>
        <path d="m24.572 31.21.614.788-.614-.789Zm-5.621 2.145-.98-.196.98.197Zm1.594.986.614.79-.614-.79Zm-1.782-4.45.384-.923-.384.923Zm.647 1.168-.98-.197.98.197Zm16.065-7.376c0 1.584-1 3.156-2.906 4.38-1.894 1.219-4.572 2.005-7.582 2.005v2c3.335 0 6.401-.867 8.664-2.322 2.252-1.448 3.824-3.568 3.824-6.063h-2ZM24.987 17.3c3.01 0 5.688.786 7.582 2.004 1.906 1.225 2.906 2.797 2.906 4.38h2c0-2.494-1.572-4.615-3.824-6.063-2.263-1.454-5.329-2.321-8.664-2.321v2ZM14.5 23.683c0-1.583 1-3.155 2.905-4.38 1.895-1.218 4.573-2.004 7.582-2.004v-2c-3.335 0-6.4.867-8.663 2.321-2.252 1.448-3.824 3.569-3.824 6.063h2Zm4.647 5.285c-2.996-1.244-4.647-3.266-4.647-5.285h-2c0 3.19 2.542 5.746 5.88 7.132l.767-1.847Zm.784 4.584.46-2.297-1.961-.392-.46 2.296 1.961.393Zm4.027-3.132-4.027 3.132 1.228 1.578 4.027-3.132-1.228-1.578Zm1.228 1.578a.324.324 0 0 1-.199.07v-2c-.366 0-.73.119-1.029.352l1.228 1.578ZM17.97 33.16c-.363 1.818 1.726 3.109 3.19 1.971l-1.229-1.578-1.96-.393Zm.41-2.344c.023.01.038.025.045.038l.005.01s0-.001 0 0l1.96.392c.2-.997-.377-1.928-1.243-2.287l-.767 1.847Z"
              fill="#E2B46B"/>
        <path fill-rule="evenodd" clip-rule="evenodd"
              d="M36.562 40.432c-5.938 0-10.751-3.094-10.751-6.911 0-3.817 4.813-6.912 10.75-6.912 5.938 0 10.752 3.095 10.752 6.912 0 2.422-1.94 4.554-4.874 5.788-.462.194-.744.678-.646 1.17l.385 1.925c.182.909-.863 1.554-1.594.986l-3.633-2.826a.633.633 0 0 0-.39-.132Z"
              fill="#fff"/>
        <path d="m36.951 40.564.614-.79-.614.79Zm3.633 2.826.613-.79-.614.79Zm1.855-4.081.388.922-.388-.922Zm-.646 1.17.98-.197-.98.196ZM26.81 33.52c0 1.453.917 2.906 2.69 4.046 1.76 1.132 4.255 1.865 7.06 1.865v2c-3.13 0-6.012-.814-8.142-2.183-2.12-1.362-3.608-3.364-3.608-5.728h2Zm9.75-5.912c-2.805 0-5.3.733-7.06 1.866-1.773 1.139-2.69 2.593-2.69 4.046h-2c0-2.364 1.489-4.366 3.608-5.729 2.13-1.369 5.011-2.183 8.143-2.183v2Zm9.752 5.912c0-1.453-.918-2.907-2.69-4.046-1.761-1.133-4.255-1.866-7.061-1.866v-2c3.131 0 6.013.814 8.143 2.183 2.119 1.363 3.608 3.364 3.608 5.729h-2Zm-4.262 4.866c2.764-1.162 4.262-3.026 4.262-4.866h2c0 3.005-2.38 5.404-5.486 6.71l-.776-1.844Zm-.854 4.213-.385-1.926 1.961-.392.386 1.926-1.962.392Zm-3.632-2.825 3.633 2.825-1.228 1.579-3.633-2.825 1.228-1.58Zm-1.228 1.579c.07.054.15.078.225.078v-2c.356 0 .711.116 1.003.343l-1.228 1.579Zm6.822.854c.363 1.817-1.727 3.109-3.19 1.971l1.228-1.579 1.962-.392Zm-.332-1.977a.1.1 0 0 0-.05.041l-.004.01c0 .001 0 0 0 0l-1.96.392c-.2-.997.377-1.925 1.238-2.287l.776 1.844Z"
              fill="#E2B46B"/>
    </symbol>
    <symbol fill="none" id="icon-aflt-card-icon-5" viewBox="0 0 61 61">
        <rect x="1.13" y="9.602" width="30.697" height="46.702" rx="1.972" transform="rotate(-15 1.13 9.602)" fill="#fff" stroke="#806E54"
              stroke-width="1.315"/>
        <path d="M12.403 10.416a.97.97 0 0 0-1.57.421 69.487 69.487 0 0 1-3.399 8.583.95.95 0 0 0 .32 1.187c2.525 1.74 4.96 3.63 7.215 5.71a.98.98 0 0 0 1.592-.426c.913-2.93 2.077-5.783 3.394-8.553a.95.95 0 0 0-.318-1.188 69.478 69.478 0 0 1-7.234-5.734Z"
              fill="#E51E25"/>
        <path d="M34.198 35.397a.326.326 0 0 0-.528.141c-.315.987-.7 1.95-1.142 2.886a.32.32 0 0 0 .107.4c.85.585 1.668 1.22 2.427 1.92a.33.33 0 0 0 .535-.143c.307-.986.698-1.945 1.141-2.877a.32.32 0 0 0-.107-.4 23.366 23.366 0 0 1-2.433-1.927Z"
              fill="#fff"/>
        <rect x="17.128" y="2.155" width="30.697" height="46.702" rx="1.972" fill="#fff" stroke="#806E54" stroke-width="1.315"/>
        <path d="M28.225 4.53c-.206-.444-1.052-.444-1.257 0-.16.349-.34.68-.54.996-.527.828-1.464 1.85-2.814 3.072-1.35 1.223-2.205 2.16-2.566 2.813-.36.653-.539 1.315-.539 1.988 0 .935.312 1.715.936 2.338.623.624 1.383.936 2.28.936 1.001 0 1.861-.457 2.565-1.11.35-.325.999-.083.91.386a6.54 6.54 0 0 1-.507 1.627c-.433.9-1.097 1.647-1.994 2.24-.581.386-1.613.725-3.09 1.02a.269.269 0 0 0 .05.534h11.867a.269.269 0 0 0 .05-.535c-1.476-.294-2.507-.633-3.089-1.018-.897-.594-1.56-1.34-1.994-2.241a6.543 6.543 0 0 1-.506-1.622c-.089-.468.561-.711.912-.388.706.652 1.569 1.107 2.569 1.107.896 0 1.656-.312 2.28-.936.624-.623.935-1.403.935-2.338 0-.673-.178-1.335-.539-1.988-.36-.653-1.216-1.59-2.566-2.813-1.35-1.223-2.286-2.244-2.812-3.072-.2-.315-.38-.647-.541-.995Z"
              fill="#191717"/>
        <path d="M40.797 36.875c-.085-.184-.434-.184-.518 0-.066.143-.14.28-.223.41-.217.341-.603.762-1.16 1.266-.555.504-.908.89-1.056 1.159a1.676 1.676 0 0 0-.223.819c0 .385.129.707.386.964s.57.385.94.385c.412 0 .766-.188 1.056-.457.144-.134.412-.034.375.159a2.695 2.695 0 0 1-.208.67 2.288 2.288 0 0 1-.822.924c-.24.158-.665.298-1.273.42a.11.11 0 0 0 .021.22h4.889a.11.11 0 0 0 .02-.22c-.608-.122-1.032-.262-1.272-.42a2.288 2.288 0 0 1-.822-.924 2.694 2.694 0 0 1-.208-.668c-.037-.193.23-.293.375-.16.291.269.647.456 1.059.456.37 0 .683-.128.94-.385.257-.257.385-.579.385-.964 0-.277-.074-.55-.222-.819-.149-.269-.501-.655-1.057-1.16-.557-.503-.943-.924-1.16-1.265a3.505 3.505 0 0 1-.222-.41Z"
              fill="#fff"/>
        <path fill="#fff" d="m34.01 43.901 11.682-11.683L56.684 43.21 45.001 54.893z"/>
        <path d="M57.109 40.751 44.725 28.367a2.747 2.747 0 0 0-1.949-.806H33.14a2.753 2.753 0 0 0-2.754 2.754v9.638c0 .764.31 1.452.812 1.948L43.59 54.292a2.747 2.747 0 0 0 3.89 0l9.637-9.638a2.771 2.771 0 0 0 .805-1.948c0-.764-.31-1.452-.812-1.955Zm-21.905-6.306a2.062 2.062 0 0 1-2.065-2.065c0-1.143.922-2.065 2.065-2.065 1.143 0 2.065.922 2.065 2.065a2.062 2.062 0 0 1-2.065 2.065Zm16.205 11.387L45.53 51.71l-5.879-5.88a3.457 3.457 0 0 1-1.005-2.436 3.443 3.443 0 0 1 5.879-2.43l1.005 1.005 1.005-1.005a3.443 3.443 0 0 1 5.879 2.43c0 .95-.385 1.81-1.005 2.437Z"
              fill="#806E54"/>
    </symbol>
    <symbol fill="none" id="icon-aflt-gt-shop" viewBox="0 0 201 79">
        <path d="M169.954 70.843v1.445h-6.933v-1.445h6.933Zm-6.669-5.765v13.408h-1.698V65.078h1.698Zm8.147 0v13.408h-1.69V65.078h1.69Zm-20.94 10.332 6.308-10.332h1.698v13.408H156.8V68.145l-6.308 10.34h-1.689V65.079h1.689V75.41Zm-8.543-3.36h-1.522v-1.134h1.461c.645 0 1.167-.095 1.566-.285.399-.19.689-.454.871-.792.182-.338.273-.727.273-1.17 0-.423-.1-.81-.3-1.16-.199-.356-.507-.638-.923-.847-.417-.215-.953-.322-1.61-.322-.493 0-.939.098-1.338.294a2.35 2.35 0 0 0-.95.802 2.003 2.003 0 0 0-.352 1.17h-1.698a3.381 3.381 0 0 1 1.285-2.708 4.279 4.279 0 0 1 1.381-.746 5.366 5.366 0 0 1 1.672-.258 6.52 6.52 0 0 1 1.865.249c.557.16 1.035.399 1.434.718.399.32.704.715.915 1.188.211.473.317 1.022.317 1.648 0 .46-.103.893-.308 1.299a3.269 3.269 0 0 1-.88 1.068c-.381.307-.839.55-1.373.727a5.804 5.804 0 0 1-1.786.258Zm-1.522-.784h1.522c.722 0 1.364.077 1.927.23.563.154 1.038.378 1.425.673.388.294.681.66.88 1.096.206.43.308.924.308 1.482 0 .626-.117 1.182-.352 1.667a3.434 3.434 0 0 1-.976 1.234 4.369 4.369 0 0 1-1.505.764 6.579 6.579 0 0 1-1.891.258 6.19 6.19 0 0 1-1.637-.221 4.658 4.658 0 0 1-1.451-.7 3.584 3.584 0 0 1-1.047-1.215c-.259-.492-.388-1.08-.388-1.769h1.698c0 .449.118.86.352 1.234.241.375.572.676.995.903.422.22.915.331 1.478.331.645 0 1.19-.104 1.636-.313.452-.215.795-.506 1.029-.874a2.28 2.28 0 0 0 .361-1.262c0-.411-.064-.767-.193-1.068a1.809 1.809 0 0 0-.555-.755 2.3 2.3 0 0 0-.906-.433 4.743 4.743 0 0 0-1.249-.147h-1.461v-1.115Zm-9.414-5-4.24 12.22h-1.733l4.882-13.408h1.118l-.027 1.188Zm3.555 12.22-4.25-12.22-.026-1.188h1.117l4.901 13.408h-1.742Zm-.22-4.964v1.455h-7.197v-1.455h7.197Zm-8.455-8.444v1.455h-6.176v11.953h-1.69V65.078h7.866Zm-14.957 1.188-4.24 12.22h-1.734l4.883-13.408h1.118l-.027 1.188Zm3.555 12.22-4.25-12.22-.026-1.188h1.117l4.901 13.408h-1.742Zm-.22-4.964v1.455h-7.197v-1.455h7.197Zm-23.43-8.444h1.646l4.196 10.93 4.188-10.93h1.654l-5.208 13.408h-1.285l-5.19-13.408Zm-.536 0h1.451l.238 8.177v5.23h-1.69V65.079Zm11.297 0h1.451v13.408h-1.689v-5.23l.238-8.178Z"
              fill="var(--text-2-color,#191717)"/>
        <rect x=".305" y="39.349" width="54.442" height="54.442" rx="4" transform="rotate(-45 .305 39.349)" fill="#fff"/>
        <path d="M35.63 72.78 5.72 42.772a4.17 4.17 0 0 1 0-5.882L35.63 6.967a4.165 4.165 0 0 1 5.881 0l29.913 29.922a4.17 4.17 0 0 1 0 5.881L41.51 72.781a4.164 4.164 0 0 1-5.879 0Zm4.944-.938L70.486 41.92a2.83 2.83 0 0 0 0-4.008L40.574 7.907a2.827 2.827 0 0 0-4.005 0L6.57 37.827a2.833 2.833 0 0 0 0 4.009l29.914 29.92c1.193 1.194 2.983 1.194 4.089.086h.001Z"
              fill="#E51E25"/>
        <path d="m36.737 67.154-11.25-11.167.34-.17L43.554 28.11c1.194-1.79-.17-4.177-2.3-4.177H25.487l11.25-11.337c1.107-1.108 2.982-1.108 4.175 0l11.335 11.337-.256.086-17.726 27.79c-1.193 1.79.17 4.177 2.3 4.177h15.426L40.827 67.154c-1.108 1.109-2.983 1.109-4.09 0ZM21.652 52.151 11.51 41.921c-1.108-1.107-1.108-2.983 0-4.177l8.437-8.44h16.277L21.652 52.152Zm19.942-1.62L56.08 27.856l9.97 9.974c1.11 1.108 1.11 2.985 0 4.177l-8.521 8.525H41.594ZM96.073 11c2.246 0 4.492.452 6.438 1.358v4.374c-1.572-1.056-3.743-1.659-5.839-1.659-3.743 0-7.41 1.96-7.41 6.939 0 5.582 4.116 7.014 7.186 7.014a7.13 7.13 0 0 0 2.32-.377v-7.542h4.267V31.59c-2.096.905-4.491 1.433-6.812 1.433-5.839 0-11.528-3.243-11.528-11.012C84.695 14.318 90.31 11 96.074 11Zm16.469.452v21.12h-4.492v-21.12h4.492Zm13.774 3.998h-3.594v6.185h3.594c2.321 0 4.267-.604 4.267-3.093s-1.946-3.092-4.267-3.092Zm-.224-3.998c5.089 0 9.057 1.66 9.057 7.09 0 5.431-3.968 7.09-9.058 7.09h-3.443v6.94h-4.491v-21.12h7.935ZM146.078 11c2.47 0 5.016.603 6.812 1.66v4.223c-1.797-1.282-4.116-1.886-6.437-1.886-2.246 0-3.444.68-3.444 1.962 0 3.62 11.454 2.262 11.454 9.805 0 4.752-3.743 6.185-8.16 6.185-2.919 0-5.614-.68-7.785-1.886v-4.3c2.395 1.585 5.015 2.263 7.411 2.263 2.395 0 3.892-.528 3.892-2.036 0-3.922-11.453-2.489-11.453-9.956.075-4.073 3.594-6.034 7.71-6.034Zm17.892 21.572v-7.468l-8.235-13.652h5.09l5.39 9.504 5.391-9.504h5.089l-8.158 13.652v7.468h-4.567Zm-61.838 5.309v4.073h-6.438V59h-4.492V41.954h-6.438V37.88h17.368Zm18.564 0v3.998H110.44v4.525h9.358v3.923h-9.356v4.676h10.48V59h-14.973V37.88h14.747Zm10.405 13.426h6.738l-2.921-7.543c-.149-.452-.298-.829-.448-1.66-.15.83-.299 1.208-.449 1.66l-2.92 7.543ZM123.466 59l8.608-21.12h4.866L145.474 59h-4.64l-1.498-3.922h-9.582L128.182 59h-4.716Zm48.208-21.12V59h-4.492V46.027l-5.539 8.448h-2.62l-5.539-8.524V59h-4.492V37.88h4.193l7.185 11.013 7.188-11.011 4.116-.001Z"
              fill="#E51E25"/>
    </symbol>
    <symbol fill="none" id="icon-aflt-gtplus-logo" viewBox="0 0 79 76">
        <path d="M56.6255 18.3108L37.9464 0.571289L35.4508 1.62374L1.21697 35.4645L0.656982 37.609L1.21697 39.6597L5.60127 44.2284L6.06752 46.2786L7.65313 52.6182L11.3843 56.6273L21.0854 59.144L24.9104 63.7121L36.6639 74.5268L40.0214 73.874L65.9535 47.3974L71.9234 45.3472V39.6597L78.3602 38.634V31.0838L71.9234 32.1089V26.2358L65.9535 27.1684H62.5023L61.9423 17.6593L56.6255 18.3114V18.3108Z" fill="white"/>
        <path d="M72.6077 31.3654C73.5627 31.1969 74.4459 31.0448 75.3272 30.8866C76.3109 30.709 77.2933 30.5216 78.2781 30.3464C78.8588 30.2418 79.0012 30.3622 79 30.9487C78.9963 33.4837 78.9817 36.0181 78.9933 38.5531C78.9951 39.0434 78.8344 39.2642 78.3292 39.3464C76.6675 39.6159 75.0156 39.9346 73.3582 40.2321C72.649 40.3593 72.5961 40.4195 72.5918 41.1367C72.5827 42.671 72.559 44.2053 72.5699 45.7395C72.5736 46.2347 72.3885 46.4519 71.8961 46.5304C70.5463 46.7441 69.2011 46.9855 67.8612 47.2543C67.5915 47.3091 67.3128 47.4922 67.1131 47.6917C58.3812 56.3954 49.6582 65.108 40.9442 73.8296C39.6277 75.1485 38.0841 75.5342 36.3165 75.1333C35.4844 74.9453 34.8075 74.4568 34.205 73.8545C29.806 69.4537 25.3986 65.0602 21.0027 60.6563C20.7593 60.4118 20.5243 60.3065 20.1743 60.3236C17.6757 60.4416 15.2422 60.1289 12.953 59.0685C8.8864 57.1845 6.57585 53.9219 5.73771 49.5989C5.48267 48.2849 5.48815 46.9179 5.41145 45.5722C5.39319 45.2334 5.32137 44.984 5.07364 44.7406C3.83437 43.5257 2.63527 42.2713 1.38079 41.0723C-0.459852 39.3123 -0.454983 36.2949 1.36375 34.482C12.3659 23.5186 23.357 12.5441 34.337 1.55858C36.045 -0.150281 39.0963 -0.155756 40.87 1.63402C46.2142 7.02523 51.6046 12.3702 56.9713 17.7414C57.2392 18.0102 57.4686 18.1325 57.8795 18.0443C59.2149 17.7584 60.565 17.5363 61.9083 17.2887C62.5407 17.1725 62.6765 17.2827 62.674 17.9458C62.671 19.6139 62.6503 21.282 62.6722 22.9488C62.6765 23.211 62.8067 23.5316 62.9869 23.7221C63.8001 24.5823 64.6638 25.3956 65.4861 26.2485C65.7393 26.512 65.9883 26.5643 66.3291 26.4998C68.1643 26.1573 70.0019 25.8318 71.8389 25.5009C72.5279 25.3768 72.6582 25.4978 72.6503 26.2096C72.6332 27.7439 72.6223 29.2781 72.6089 30.8124C72.607 30.9748 72.6077 31.1367 72.6077 31.3654ZM29.341 43.7374C29.3258 43.8725 29.3307 43.9546 29.3069 44.0282C28.8754 45.3526 28.2016 46.5286 27.1248 47.4344C25.3816 48.9024 23.3127 49.5496 21.0788 49.6062C18.3592 49.6768 16.2666 48.148 15.5259 45.5284C14.6287 42.3547 15.0748 39.3391 16.994 36.6264C19.0209 33.7605 22.6772 32.3406 25.9196 33.1466C26.742 33.3504 27.504 33.7952 28.3574 34.1571C30.2236 31.9756 32.1555 29.7149 34.1015 27.4391C33.9493 27.3113 33.8531 27.2213 33.7484 27.141C31.7483 25.6152 29.4451 24.9698 26.9739 24.9309C23.1702 24.8718 19.6198 25.8489 16.3263 27.739C9.20473 31.8241 5.45284 39.8026 7.00923 47.6698C7.73782 51.3564 9.71176 54.2005 13.1356 55.9021C15.5764 57.1145 18.1852 57.4108 20.8792 57.1626C26.0298 56.6868 30.2193 54.3946 33.5062 50.4488C35.9245 47.5445 37.2283 44.1572 37.5186 40.4031C37.6263 39.0197 37.5356 37.6193 37.5356 36.1975C37.2599 36.2158 37.1278 36.2115 37 36.2359C32.2347 37.1265 27.4718 38.0232 22.7064 38.9023C22.3753 38.9631 22.3138 39.1006 22.315 39.395C22.3193 41.1301 22.3053 42.8632 22.301 44.5983C22.301 44.7376 22.3254 44.8769 22.3412 45.0411C24.6865 44.605 26.9775 44.1785 29.341 43.7374ZM44.4594 52.2945C44.564 52.2872 44.628 52.2897 44.6907 52.2781C47.1801 51.8182 49.6666 51.3425 52.1603 50.9087C52.6376 50.8254 52.7179 50.6246 52.7167 50.1878C52.7027 43.0007 52.7063 35.8124 52.7063 28.6254V27.9653C52.8768 27.9166 53.0168 27.8637 53.161 27.837C55.7144 27.3612 58.2684 26.8831 60.8255 26.4207C61.2102 26.352 61.3769 26.2321 61.3739 25.7886C61.355 23.5882 61.38 21.3866 61.3897 19.185C61.3909 19.0286 61.3897 18.8723 61.3897 18.6709C52.8329 20.2678 44.3589 21.8502 35.9007 23.4307V31.0679L44.4594 29.4722V52.2945ZM5.38345 42.9296C5.50215 42.0949 5.57214 41.2444 5.74866 40.4165C7.16688 33.7453 11.021 28.9642 17.0762 25.8975C17.3817 25.7436 17.6787 25.5386 17.9216 25.2977C23.5001 19.7398 29.0701 14.174 34.645 8.61242C34.9037 8.35387 35.1685 8.09106 35.4686 7.88605C36.9951 6.83603 38.9125 7.04835 40.299 8.42931C43.7868 11.9012 47.2708 15.3767 50.7403 18.8668C51.0641 19.1929 51.363 19.3218 51.7903 19.1758C51.8998 19.1387 52.0185 19.1308 52.133 19.1095L55.5495 18.4635L55.6645 18.2907C55.5032 18.1806 55.3194 18.0912 55.1836 17.9561C50.1146 12.9025 45.051 7.84407 39.9862 2.78623C38.4675 1.269 36.6567 1.26596 35.1423 2.77833L11.0241 26.863C8.1432 29.7405 5.25989 32.6137 2.3845 35.4955C1.18053 36.7019 1.0028 38.4673 2.09599 39.6992C3.10883 40.8405 4.27262 41.8485 5.38345 42.9296ZM22.5756 60.1849C22.6389 60.2579 22.7265 60.3722 22.8263 60.4726C26.9806 64.6222 31.133 68.7742 35.2927 72.9158C36.6184 74.2354 38.5187 74.2238 39.8498 72.8939C48.1496 64.6104 56.4436 56.3212 64.732 48.0263C64.8952 47.8501 64.9911 47.622 65.0028 47.3821C65.0254 45.8977 65.0156 44.4133 65.0126 42.9296C65.0126 42.8079 64.9858 42.688 64.9493 42.3985C64.7466 42.6491 64.6443 42.8024 64.5171 42.9296C60.6739 46.7719 56.8277 50.6118 52.9827 54.4517C48.756 58.6707 44.5306 62.8908 40.3021 67.1073C38.6848 68.7213 36.4571 68.7231 34.8264 67.1207C34.4576 66.7581 34.0948 66.39 33.729 66.0244C31.4629 63.7614 29.1974 61.4971 26.924 59.2419C26.8034 59.1227 26.5746 58.9864 26.4431 59.0247C25.157 59.3897 23.8781 59.7894 22.5756 60.1849ZM66.3912 44.3476C66.569 44.3355 66.7023 44.3409 66.8307 44.3166C68.1899 44.0678 69.546 43.7952 70.9094 43.5762C71.3057 43.5117 71.3854 43.3511 71.3818 42.9928C71.3666 41.3424 71.3745 39.6919 71.3769 38.0408C71.3769 37.848 71.3927 37.6533 71.4019 37.4629C73.5322 37.0766 75.609 36.6988 77.6865 36.321V31.748C75.5767 32.1247 73.4668 32.5008 71.3568 32.8765V26.9086C71.19 26.9189 71.0908 26.9159 70.9959 26.9329C69.6026 27.1872 68.2142 27.461 66.8173 27.6897C66.4637 27.7475 66.3912 27.8893 66.3931 28.2074C66.404 29.8914 66.3991 31.5747 66.3973 33.2592C66.3973 33.4356 66.3803 33.612 66.3724 33.7812L60.0214 34.9419V39.5137L66.39 38.37C66.3912 40.4037 66.3912 42.3644 66.3912 44.3476Z" fill="#E51E25"/>
    </symbol>
    <symbol fill="none" id="icon-aflt-pswap" viewBox="0 0 219 59">
        <path fill-rule="evenodd" clip-rule="evenodd"
              d="M49.39 16.245 38.886 14.08a1.576 1.576 0 0 0-.634 3.087l13.87 2.858a1.574 1.574 0 0 0 1.86-1.226l2.854-13.89a1.574 1.574 0 1 0-3.083-.635l-2.008 9.773c-1.017-1.638-2.429-3.594-4.32-5.387-4.042-3.83-10.355-7.133-20.227-6.722C11.532 2.592.054 15.516.513 31.135c.444 15.119 12.44 27.528 26.75 27.528 13.259 0 20.798-6.9 24.948-13.758 2.06-3.404 3.29-6.794 4.004-9.325.358-1.269.59-2.33.732-3.08a25.089 25.089 0 0 0 .188-1.123l.01-.068.002-.02v-.007l.001-.002c0-.001 0-.002-1.562-.192l-1.562-.19v.008l-.007.043a22.098 22.098 0 0 1-.161.961 33.42 33.42 0 0 1-.67 2.812c-.66 2.343-1.792 5.453-3.666 8.55-3.717 6.14-10.34 12.24-22.258 12.24-12.44 0-23.204-10.884-23.603-24.47-.41-13.97 9.8-25.375 23.67-25.954 9.01-.376 14.498 2.609 17.931 5.862 1.948 1.847 3.217 3.723 4.13 5.296Z"
              fill="var(--text-2-color,#191717)"/>
        <path fill-rule="evenodd" clip-rule="evenodd"
              d="m57.917 31.254-1.564-.175-1.564-.175V30.9l.001-.006.003-.02.008-.073.035-.26c.031-.223.08-.544.15-.949.14-.81.366-1.956.716-3.325.698-2.732 1.895-6.388 3.897-10.035C63.619 8.905 70.977 1.501 83.958 1.92c18.371.593 27.479 15.94 27.479 29.158 0 6.772-3.105 13.65-8.035 18.82-4.94 5.181-11.822 8.763-19.495 8.763-9.76 0-15.491-2.666-19.188-6.153-1.822-1.718-3.09-3.58-4.089-5.272a39.83 39.83 0 0 1-.398-.688l-1.926 9.786a1.574 1.574 0 1 1-3.088-.61l2.739-13.917a1.574 1.574 0 0 1 1.848-1.242l13.897 2.743a1.576 1.576 0 0 1-.608 3.093L62.599 44.33c.236.428.48.86.74 1.303.92 1.557 2.014 3.144 3.538 4.581 2.994 2.825 7.893 5.296 17.03 5.296 6.669 0 12.765-3.117 17.218-7.787 4.463-4.68 7.165-10.806 7.165-16.644 0-12-8.204-25.483-24.434-26.007-11.424-.37-17.844 6.019-21.499 12.68-1.836 3.347-2.951 6.735-3.606 9.297a40.204 40.204 0 0 0-.664 3.082 26.931 26.931 0 0 0-.162 1.063l-.006.05-.002.01Z"
              fill="var(--text-2-color,#191717)"/>
        <path d="M29.53 40.952c.617 0 1.197-.019 1.773.003 1.129.043 1.89.782 1.873 1.788-.018.974-.757 1.7-1.855 1.71-2.46.026-4.92.026-7.379 0-1.12-.01-1.835-.705-1.853-1.696-.02-1.04.697-1.754 1.841-1.802.578-.025 1.16-.005 1.793-.005v-3.861c-.14.022-.268.01-.36.058-4.32 2.334-10.36-.438-10.688-6.254-.166-2.935 1.211-5.277 3.32-7.2 2.707-2.47 5.6-4.76 8.425-7.113.698-.581 1.551-.67 2.25-.11 3.376 2.717 6.992 5.202 9.769 8.518 2.216 2.648 2.863 5.6 1.405 8.756-1.749 3.788-5.979 5.194-9.944 3.411-.099-.044-.217-.054-.37-.09v3.887Z"
              fill="var(--text-2-color,#191717)"/>
        <path fill-rule="evenodd" clip-rule="evenodd"
              d="M83.12 16.094c-1.044 0-1.89.917-1.89 2.05v1.363h-1.264c-3.462 0-6.295 3.072-6.295 6.827s2.832 6.827 6.295 6.827h1.264v6.825h-1.264c-1.732 0-3.148-1.536-3.148-3.412 0-.943-.705-1.708-1.574-1.708-.868 0-1.573.765-1.573 1.708 0 3.755 2.832 6.827 6.295 6.827h1.264v1.387c0 1.132.846 2.05 1.89 2.05 1.043 0 1.89-.918 1.89-2.05v-1.387h1.25c3.461 0 6.294-3.072 6.294-6.827s-2.833-6.827-6.295-6.827h-1.25V22.92h1.25c1.732 0 3.148 1.536 3.148 3.413 0 .942.705 1.707 1.574 1.707.868 0 1.573-.765 1.573-1.707 0-3.755-2.833-6.827-6.295-6.827h-1.25v-1.364c0-1.132-.846-2.05-1.89-2.05Zm-1.89 6.827h-1.264c-1.73 0-3.148 1.536-3.148 3.413 0 1.877 1.416 3.413 3.148 3.413h1.264V22.92Zm3.78 10.24v6.825h1.25c1.73 0 3.147-1.536 3.147-3.412 0-1.877-1.416-3.413-3.148-3.413h-1.25Z"
              fill="var(--text-2-color,#191717)"/>
        <path d="M203.43 23.397h10.124v-2.165l-2.37-.117c-.731-.03-.878-.351-.878-1.375v-5.384c0-2.575 2.107-4.419 3.951-3.745-.41.907-.527 1.287-.527 1.697 0 .877.673 1.58 2.195 1.58 1.697 0 2.574-1.112 2.574-3.014 0-1.931-1.346-3.219-3.569-3.219-2.107 0-3.892 1.23-4.975 3.16h-.146l-.263-2.692-.468-.263-5.648.38-.263 2.312 1.404.088c.937.058 1.083.41 1.083 1.755v7.286c0 1.112-.205 1.405-.849 1.434l-1.375.088v2.194Zm-9.984.41c3.101 0 5.676-1.375 7.315-3.306l-1.492-1.727c-1.346.995-2.839 1.61-4.682 1.61-2.604 0-4.331-1.317-4.477-3.95h10.095c.205-.966.263-1.99.263-2.985 0-3.687-2.575-5.794-6.7-5.794-5.004 0-8.486 3.072-8.486 8.515 0 4.594 2.955 7.637 8.164 7.637Zm-3.336-9.802c.176-2.312 1.375-3.863 3.394-3.863 1.639 0 2.517.966 2.517 2.517 0 .41-.03.848-.088 1.346h-5.823Zm-25.772 9.392h8.837v-2.165l-1.083-.117c-.761-.059-.907-.38-.907-1.346V1.276l-.439-.322-6.642.263-.175 2.341 1.375.088c1.082.059 1.229.468 1.229 1.785v14.338c0 1.024-.176 1.316-.849 1.346l-1.346.087v2.195Zm16.094.322c1.375 0 2.779-.527 3.716-1.258l-.469-1.756c-.526.176-.877.234-1.17.234-.878 0-1.492-.439-2.399-1.55l-4.155-4.887 3.774-3.073c.732-.614 1.288-.936 2.078-1.024l1.141-.117V8.064h-7.666l-.41 2.136 1.2.118c.643.087.673.731.058 1.228l-4.594 3.687-.029.468 4.477 5.619c1.375 1.755 2.575 2.399 4.448 2.399Zm-27.761.088c5.647 0 8.866-2.985 8.866-8.368 0-5.267-3.336-7.784-8.281-7.784-5.296 0-8.836 2.81-8.836 8.398 0 5.003 3.043 7.754 8.251 7.754Zm.468-2.692c-2.516 0-3.833-1.902-3.833-5.91 0-3.512 1.346-4.858 3.482-4.858 2.37 0 3.862 1.55 3.862 5.735 0 3.365-1.082 5.033-3.511 5.033Zm-28.802 2.282h11.002v-2.224l-2.399-.117c-1.024-.058-1.229-.38-1.229-1.434v-3.95c.468.088 1.551.147 2.633.147 3.687 0 8.135-1.698 8.135-6.818 0-5.062-4.155-6.086-8.808-6.086h-9.334v2.223l1.434.059c.936.059 1.083.468 1.083 1.405v13.05c0 1.2-.293 1.375-.995 1.404l-1.522.117v2.224Zm8.925-10.27c-.644 0-1.141-.059-1.551-.117V5.43h1.463c2.721 0 4.243.907 4.243 3.628 0 2.78-1.375 4.068-4.155 4.068Zm56.7 43.577h10.008V54.51l-2.078-.147c-.849-.058-1.024-.438-1.024-1.375v-3.072c.995.556 2.516.878 3.979.878 5.062 0 7.696-3.307 7.696-8.632 0-4.887-2.429-7.52-6.437-7.52-2.722 0-4.331 1.17-5.56 2.984h-.176l-.234-2.516-.526-.264-5.618.38-.264 2.313 1.376.087c.965.059 1.111.468 1.111 1.785v13.577c0 1.112-.321 1.375-.907 1.434l-1.346.088v2.194Zm10.125-8.778c-1.2 0-2.575-.38-3.219-.878v-5.706c0-2.194 1.258-3.657 3.511-3.657 2.165 0 3.277 1.58 3.277 4.828 0 3.745-1.229 5.413-3.569 5.413Zm-23.318 2.867c2.428 0 4.008-1.053 4.945-2.428.321 1.463 1.433 2.428 3.394 2.428 1.551 0 3.014-.673 3.804-1.316l-.439-1.815a3.709 3.709 0 0 1-1.376.264c-.907 0-1.228-.498-1.228-1.317v-6.32c0-3.54-1.815-5.618-6.73-5.618-4.038 0-6.964 1.872-6.964 4.213 0 1.2.731 1.902 2.165 1.902 1.434 0 2.311-.673 2.311-1.58 0-.351-.234-.907-.819-1.814.527-.41 1.492-.644 2.517-.644 2.399 0 2.867 1.317 2.867 3.073v1.99c-6.613.233-9.246 1.374-9.246 4.915 0 2.458 1.843 4.067 4.799 4.067Zm1.814-2.663c-1.288 0-1.99-.76-1.99-1.93 0-1.61 1.404-2.283 4.623-2.283v1.931c0 1.346-1.112 2.282-2.633 2.282Zm-29.866 2.254h4.857l2.985-11.002h.146l3.16 11.002h4.389l3.57-11.148c.468-1.434.907-1.814 1.668-1.873l1.112-.117V35.05h-6.525l-.293 2.166.907.117c.907.117 1.083.556.761 1.638l-2.194 7.023h-.176l-3.189-10.944h-4.77l-3.102 11.002h-.146l-2.311-7.227c-.352-1.024-.235-1.463.497-1.492l1.229-.059V35.05h-8.573l-.352 2.283 1.142.117c.877.058 1.053.556 1.433 1.638l3.775 11.295Zm-15.484.409c4.008 0 7.695-2.34 7.695-6.554 0-3.862-2.545-5.296-6.935-6.496-3.043-.82-4.506-1.58-4.506-3.248 0-1.463 1.346-2.223 3.16-2.223 2.136 0 4.155.848 5.267 3.92l2.312-.468-.615-6.232h-1.931l-.439 1.433c-1.287-.907-2.838-1.433-4.857-1.433-5.296 0-7.461 3.57-7.461 6.262 0 3.862 2.516 5.354 6.525 6.437 3.394.936 4.681 1.697 4.681 3.423 0 1.463-1.229 2.283-3.452 2.283-2.751 0-4.945-1.405-6.028-4.155l-2.312.322.556 6.495h2.078l.439-1.58c1.346 1.054 3.511 1.814 5.823 1.814Z"
              fill="var(--text-2-color,#191717)"/>
    </symbol>
    <symbol fill="none" id="icon-aflt-separator-dot" viewBox="0 0 193 29">
        <path fill="#E51E25" d="M.5 13.284h80v2H.5zm112 0h80v2h-80z"/>
        <path fill="#E2B46B" d="m96.5.284 14.142 14.142L96.5 28.568 82.358 14.426z"/>
        <circle cx="96.5" cy="14.284" r="7" fill="#2D3134"/>
        <circle cx="96.5" cy="14.284" r="5" fill="#E2B46B"/>
        <circle cx="96.5" cy="14.284" r="3" fill="#2D3134"/>
    </symbol>
    <symbol fill="none" id="icon-aflt-separator-star" viewBox="0 0 193 29">
        <path fill="#E51E25" d="M.5 13h80v2H.5zm112 0h80v2h-80z"/>
        <path fill="#E2B46B" d="m96.5 0 14.142 14.142L96.5 28.284 82.358 14.142z"/>
        <path d="m96.5 6.427 1.988 4.78 5.16.413-3.932 3.368 1.201 5.035-4.417-2.698-4.418 2.698 1.202-5.035-3.932-3.368 5.16-.413 1.988-4.78Z" fill="#fff"/>
    </symbol>
    <symbol fill="none" id="icon-aflt-tg-icon" viewBox="0 0 23 20">
        <path d="M21.646.713c-.36-.305-.926-.349-1.51-.114h-.001C19.52.846 2.729 8.048 2.045 8.342c-.123.043-1.21.448-1.097 1.35.1.814.972 1.151 1.079 1.19l4.268 1.462c.284.942 1.328 4.42 1.558 5.164.144.463.38 1.071.79 1.197.361.139.72.012.953-.17l2.61-2.421 4.213 3.285.1.06c.286.127.56.19.822.19.202 0 .396-.038.58-.113.632-.26.885-.861.911-.93L21.979 2.25c.192-.874-.075-1.318-.333-1.537ZM10.06 12.928l-1.44 3.84-1.44-4.8 11.04-8.16-8.16 9.12Z"
              fill="#fff"/>
    </symbol>
</svg>